<?xml version="1.0" encoding="utf-8"?>
<!-- Generator: Adobe Illustrator 22.0.0, SVG Export Plug-In . SVG Version: 6.00 Build 0)  -->
<svg version="1.1" id="图层_1" xmlns="http://www.w3.org/2000/svg" xmlns:xlink="http://www.w3.org/1999/xlink" x="0px" y="0px"
	 viewBox="0 0 214 225" style="enable-background:new 0 0 214 225;" xml:space="preserve">
<style type="text/css">
	.st0{fill:url(#Fill-1_1_);}
	.st1{fill:url(#Fill-2_1_);}
	.st2{fill:url(#Fill-3_1_);}
	.st3{fill:url(#Fill-4_1_);}
	.st4{fill:url(#Fill-5_1_);}
	.st5{fill:url(#Fill-6_1_);}
	.st6{fill:url(#Fill-7_1_);}
	.st7{fill:url(#Fill-8_1_);}
	.st8{fill:url(#Fill-9_1_);}
	.st9{fill:url(#Fill-10_1_);}
	.st10{fill:url(#Fill-11_1_);}
	.st11{fill:url(#Fill-12_1_);}
	.st12{fill:url(#Fill-13_1_);}
	.st13{fill:url(#Fill-14_1_);}
	.st14{fill:url(#Fill-16_1_);}
	.st15{fill:url(#Fill-17_1_);}
	.st16{fill:url(#Fill-18_1_);}
	.st17{fill:url(#Fill-20_1_);}
	.st18{fill:url(#Fill-21_1_);}
	.st19{fill:url(#Fill-22_1_);}
</style>
<g id="Red.block">
	<g id="Group" transform="translate(28.000000, 31.000000)">
		
			<linearGradient id="Fill-1_1_" gradientUnits="userSpaceOnUse" x1="-122.011" y1="1.1391" x2="-123.6191" y2="1.3023" gradientTransform="matrix(88.9181 0 0 90.3979 10990.8428 -34.0018)">
			<stop  offset="2.210531e-02" style="stop-color:#FF464C"/>
			<stop  offset="1" style="stop-color:#C10407"/>
		</linearGradient>
		<path id="Fill-1" class="st0" d="M34.3,104.9c-1.3,6.1-0.4,10.6,2.6,12.9c3.8,3,10.8,2.4,19.8-1.7c21.4-9.9,48.1-36.7,59.5-59.9
			c5.8-11.8,6.7-20.9,2.5-25c-0.4-0.4-0.9-0.5-1.7-0.5c-3.5,0.3-9.5,4.8-13.8,10.4L81.3,69.8c-2.3,3-5.2,5.9-8.1,7.8L34.3,104.9z
			 M43.2,120.4c-2.8,0-5.1-0.7-6.8-2c-3.2-2.5-4.2-7.3-2.8-13.7v-0.1l39.2-27.4c2.8-2,5.7-4.8,7.9-7.7l21.9-28.7
			c4.3-5.7,10.6-10.4,14.3-10.6c0.9-0.1,1.7,0.2,2.2,0.7c4.4,4.3,3.5,13.7-2.4,25.8C105.3,80,78.4,107,56.9,117
			C51.6,119.2,47,120.4,43.2,120.4z"/>
		
			<linearGradient id="Fill-2_1_" gradientUnits="userSpaceOnUse" x1="-122.0598" y1="1.1335" x2="-123.6679" y2="1.2967" gradientTransform="matrix(94.9568 0 0 90.9339 11736.6465 -33.9926)">
			<stop  offset="2.210531e-02" style="stop-color:#FF464C"/>
			<stop  offset="1" style="stop-color:#C10407"/>
		</linearGradient>
		<path id="Fill-2" class="st1" d="M31.8,103.3c-1.9,6.8-1.3,11.9,1.8,14.6c3.6,3.2,10.5,3.1,19.5-0.4c22.2-8.7,51.1-35.3,64.5-59.3
			c6.8-12.2,8.5-22,4.7-26.9c-0.3-0.4-0.9-0.6-1.6-0.7c-3.5,0-9.9,4.3-14.6,9.9L81.7,69.7l-0.3-0.2l0.3,0.2c-2.5,3-5.7,5.8-8.7,7.7
			L31.8,103.3z M41,120.9c-3.3,0-6-0.8-7.9-2.5c-3.3-3-4-8.3-2-15.5v-0.1l41.4-26c3-1.9,6.1-4.6,8.6-7.6l24.3-29.1
			c4.8-5.8,11.4-10.2,15.2-10.2c1,0,1.7,0.3,2.2,0.9c4,5.1,2.3,15.2-4.6,27.7c-13.4,24.1-42.5,50.9-64.9,59.6
			C48.6,120,44.4,120.9,41,120.9z"/>
		
			<linearGradient id="Fill-3_1_" gradientUnits="userSpaceOnUse" x1="-122.1028" y1="1.1336" x2="-123.7109" y2="1.2968" gradientTransform="matrix(101.0437 0 0 91.0375 12488.4199 -34.0106)">
			<stop  offset="2.210531e-02" style="stop-color:#FF464C"/>
			<stop  offset="1" style="stop-color:#C10407"/>
		</linearGradient>
		<path id="Fill-3" class="st2" d="M29.4,100.9c-2.6,7.5-2.3,13.2,0.9,16.5c3.4,3.5,10.2,3.9,19,1c22.9-7.3,54-33.4,69.5-58.1
			c7.9-12.6,10.4-23.1,7-28.7c-0.3-0.5-0.8-0.8-1.6-0.9c-3.5-0.3-10.2,3.8-15.4,9.4L82.1,69.3L81.9,69l0.3,0.2
			c-2.8,3-6.2,5.8-9.4,7.6L29.4,100.9z M38.9,121c-3.9,0-7-1.1-9.1-3.2c-3.4-3.5-3.8-9.4-1-17.3v-0.1l43.6-24.2
			c3.1-1.7,6.5-4.4,9.2-7.4l26.8-29.2c5.3-5.7,12.3-10,16-9.6c1,0.1,1.7,0.5,2.1,1.2c3.5,5.9,1,16.6-7,29.4
			C104,85.5,72.7,111.7,49.7,119C45.6,120.4,42,121,38.9,121z"/>
		
			<linearGradient id="Fill-4_1_" gradientUnits="userSpaceOnUse" x1="-122.141" y1="1.1375" x2="-123.7491" y2="1.3007" gradientTransform="matrix(107.1281 0 0 90.6231 13239.8867 -33.0108)">
			<stop  offset="2.210531e-02" style="stop-color:#FF464C"/>
			<stop  offset="1" style="stop-color:#C10407"/>
		</linearGradient>
		<path id="Fill-4" class="st3" d="M27.3,98.8c-3.4,8.3-3.5,14.7-0.2,18.4c3.3,3.8,9.7,4.7,18.5,2.5c23.4-5.7,56.8-31,74.3-56.4
			c8.9-12.9,12.4-24.1,9.5-30.5c-0.3-0.6-0.8-1-1.6-1.1c-3.5-0.6-10.5,3.2-16,8.7L82.6,69.5l-0.3-0.2l0.3,0.2c-3,3-6.7,5.7-10,7.3
			L27.3,98.8z M37.1,121.6c-4.7,0-8.3-1.3-10.5-3.9c-3.5-4-3.4-10.7,0.1-19.3l0.1-0.1l45.5-22.1c3.2-1.6,6.8-4.2,9.8-7.2l29.2-29
			c5.8-5.8,13-9.6,16.7-8.9c1,0.2,1.7,0.7,2.1,1.5c3,6.7-0.5,18-9.6,31.2c-17.6,25.5-51.1,50.9-74.7,56.7
			C42.6,121.2,39.7,121.6,37.1,121.6z"/>
		
			<linearGradient id="Fill-5_1_" gradientUnits="userSpaceOnUse" x1="-122.1748" y1="1.1451" x2="-123.7829" y2="1.3082" gradientTransform="matrix(113.1582 0 0 89.7222 13984.6201 -32.0076)">
			<stop  offset="2.210531e-02" style="stop-color:#FF464C"/>
			<stop  offset="1" style="stop-color:#C10407"/>
		</linearGradient>
		<path id="Fill-5" class="st4" d="M25.3,96c-4.2,8.9-4.7,16.2-1.5,20.5c3.1,4,9.3,5.4,17.9,4c23.8-4,59.2-28.3,78.9-54.1
			c10.1-13.2,14.5-24.9,12.2-32.2c-0.2-0.7-0.8-1.2-1.6-1.4c-3.4-0.9-10.7,2.6-16.6,7.9L83,69.5c-3.3,3-7.2,5.5-10.6,7L25.3,96z
			 M35.6,121.7c-5.7,0-9.8-1.6-12.3-4.8c-3.5-4.6-3-12,1.5-21.3l0.1-0.1l47.3-19.7c3.4-1.4,7.2-3.9,10.4-6.8l0.2,0.3L82.5,69
			l31.7-28.7c6.2-5.6,13.6-9.1,17.3-8.1c1,0.3,1.8,0.9,2.1,1.9c2.4,7.5-2.1,19.4-12.3,32.8c-19.8,25.9-55.4,50.3-79.4,54.3
			C39.6,121.5,37.5,121.7,35.6,121.7z"/>
		
			<linearGradient id="Fill-6_1_" gradientUnits="userSpaceOnUse" x1="-122.2045" y1="1.1565" x2="-123.8126" y2="1.3197" gradientTransform="matrix(119.0367 0 0 88.3437 14711.5527 -31.0062)">
			<stop  offset="2.210531e-02" style="stop-color:#FF464C"/>
			<stop  offset="1" style="stop-color:#C10407"/>
		</linearGradient>
		<path id="Fill-6" class="st5" d="M24.5,92.4c-5.2,9.6-6.2,17.6-2.9,22.6c2.8,4.3,8.8,6.2,17.1,5.5c24.1-2.1,61.5-25,83.4-51.1
			c11.2-13.3,16.6-25.6,14.9-33.7c-0.2-0.8-0.7-1.4-1.6-1.7c-3.4-1.2-10.8,1.8-17.1,7.1l-34,28c-3.5,2.9-7.6,5.3-11.2,6.5L24.5,92.4
			z M35.4,121.3c-6.9,0-11.8-2-14.4-5.9c-3.4-5.2-2.4-13.5,3-23.4l0.1-0.1L72.9,75c3.5-1.2,7.5-3.5,11-6.4L118,40.5
			c6.5-5.4,14.2-8.5,17.8-7.2c1.1,0.4,1.8,1.2,2,2.2c1.7,8.3-3.8,20.8-15.1,34.3c-22,26.2-59.6,49.2-83.8,51.3
			C37.6,121.3,36.5,121.3,35.4,121.3z"/>
		
			<linearGradient id="Fill-7_1_" gradientUnits="userSpaceOnUse" x1="-122.2308" y1="1.1722" x2="-123.8389" y2="1.3354" gradientTransform="matrix(124.7974 0 0 86.5277 15423.8799 -28.9888)">
			<stop  offset="2.210531e-02" style="stop-color:#FF464C"/>
			<stop  offset="1" style="stop-color:#C10407"/>
		</linearGradient>
		<path id="Fill-7" class="st6" d="M24,89c-6.2,10.3-7.9,19.1-4.6,24.8c2.6,4.6,8.2,7,16.3,7l0,0c24.2,0,63.4-21.3,87.5-47.5
			C135.5,60,142,47.2,141,38.2c-0.1-1-0.6-1.7-1.6-2.1c-3.4-1.5-10.9,1.2-17.5,6.1L85.5,69.4l-0.2-0.3l0.2,0.3
			c-3.8,2.8-8.1,5-11.7,6L24,89z M35.6,121.5L35.6,121.5c-8.4,0-14.2-2.6-16.9-7.4c-3.4-6-1.7-15.1,4.7-25.6l0.1-0.1l50.1-13.6
			c3.6-1,7.7-3.1,11.5-5.9l36.4-27.2c6.9-5.2,14.6-7.8,18.2-6.2c1.2,0.5,1.9,1.4,2,2.7c1,9.1-5.6,22.1-18,35.7
			C99.5,100.1,60,121.5,35.6,121.5z"/>
		
			<linearGradient id="Fill-8_1_" gradientUnits="userSpaceOnUse" x1="-122.2539" y1="1.1926" x2="-123.8619" y2="1.3558" gradientTransform="matrix(130.3419 0 0 84.2851 16108.3965 -26.9918)">
			<stop  offset="2.210531e-02" style="stop-color:#FF464C"/>
			<stop  offset="1" style="stop-color:#C10407"/>
		</linearGradient>
		<path id="Fill-8" class="st7" d="M22.6,84.8c-7.3,10.9-9.7,20.5-6.6,27c2.3,4.9,7.6,7.9,15.4,8.6c24.1,2.3,65.1-17.1,91.3-43.1
			c13.5-13.4,21.1-26.6,20.9-36.4c0-1.2-0.5-2-1.6-2.6c-3.3-1.7-11,0.5-17.8,5.1l-38.6,26l-0.2-0.3l0.2,0.3c-4,2.7-8.5,4.7-12.2,5.4
			L22.6,84.8z M35.4,121.3c-1.4,0-2.8-0.1-4.1-0.2c-8-0.8-13.5-3.9-16-9c-3.2-6.8-0.8-16.7,6.7-27.8l0.1-0.1l51.1-10
			c3.6-0.7,8-2.7,11.9-5.3l38.6-26.1c7.1-4.8,14.9-7,18.5-5.1c1.2,0.6,1.9,1.7,1.9,3.2c0.2,10-7.5,23.4-21.1,36.9
			C98.3,102.5,60,121.3,35.4,121.3z"/>
		
			<linearGradient id="Fill-9_1_" gradientUnits="userSpaceOnUse" x1="-122.2739" y1="1.2173" x2="-123.882" y2="1.3804" gradientTransform="matrix(135.5876 0 0 81.7143 16756.8633 -24.9992)">
			<stop  offset="2.210531e-02" style="stop-color:#FF464C"/>
			<stop  offset="1" style="stop-color:#C10407"/>
		</linearGradient>
		<path id="Fill-9" class="st8" d="M22.5,79.8C14,91.2,10.9,101.5,13.8,109c2,5.2,7,8.8,14.4,10.3c23.8,4.7,66.3-12.4,94.7-38.1
			c14.6-13.2,23.3-26.9,24-37.5c0.1-1.4-0.4-2.4-1.5-3.1c-3.3-2-10.9-0.3-17.9,3.9L86.6,69c-4.3,2.6-8.9,4.3-12.6,4.7L22.5,79.8z
			 M36.8,120.7c-3.1,0-6.1-0.3-8.8-0.8c-7.6-1.5-12.8-5.2-14.9-10.7c-3-7.7,0.2-18.3,8.9-30l0.1-0.1L73.9,73
			c3.7-0.4,8.2-2.1,12.3-4.6L127,43.9c7.4-4.5,15.1-6.1,18.7-3.9c1.3,0.8,2,2.1,1.9,3.7c-0.7,10.8-9.5,24.6-24.2,38
			C98,104.6,61.4,120.7,36.8,120.7z"/>
		
			<linearGradient id="Fill-10_1_" gradientUnits="userSpaceOnUse" x1="-122.2911" y1="1.2467" x2="-123.8992" y2="1.4099" gradientTransform="matrix(140.4025 0 0 78.8419 17351.9121 -22.0027)">
			<stop  offset="2.210531e-02" style="stop-color:#FF464C"/>
			<stop  offset="1" style="stop-color:#C10407"/>
		</linearGradient>
		<path id="Fill-10" class="st9" d="M22.5,74.9c-9.7,11.8-13.6,22.9-11.1,31.3c1.7,5.6,6.3,9.8,13.3,12c23.3,7.4,67.1-7.1,97.7-32.3
			C138.1,73,148,59,149.6,47.5c0.2-1.6-0.3-2.8-1.5-3.7c-3.2-2.2-10.8-1.1-18,2.7L87.4,69.3L87.2,69l0.2,0.3
			c-4.5,2.4-9.2,3.8-13,3.9L22.5,74.9z M38.8,120.8c-5.3,0-10.1-0.6-14.2-1.9c-7.3-2.3-12-6.6-13.8-12.5c-2.6-8.7,1.4-20,11.3-32.1
			l0.1-0.1l52.2-1.7c3.7-0.1,8.3-1.5,12.7-3.8L129.8,46c7.5-4,15.2-5.1,18.7-2.7c1.4,1,2,2.5,1.8,4.4c-1.6,11.6-11.6,25.8-27.4,38.8
			C97.6,107.3,63.2,120.8,38.8,120.8z"/>
		
			<linearGradient id="Fill-11_1_" gradientUnits="userSpaceOnUse" x1="-122.3055" y1="1.2805" x2="-123.9136" y2="1.4436" gradientTransform="matrix(144.7163 0 0 75.7906 17884.8203 -17.989)">
			<stop  offset="2.210531e-02" style="stop-color:#FF464C"/>
			<stop  offset="1" style="stop-color:#C10407"/>
		</linearGradient>
		<path id="Fill-11" class="st10" d="M22.9,70.3C12,82.3,7.2,94.1,9.1,103.5c1.3,6.1,5.5,10.9,12.1,13.9
			c22.5,10.2,67.5-1.4,100.1-25.8c16.8-12.5,27.9-26.7,30.5-39c0.4-1.9-0.1-3.3-1.4-4.4c-3.2-2.5-10.6-1.9-17.9,1.4L88,70.3
			c-4.7,2.2-9.5,3.3-13.3,3L22.9,70.3z M41.4,121.8c-7.8,0-14.8-1.2-20.5-3.7C14,115,9.7,110,8.4,103.7c-2-9.7,2.9-21.7,14-34
			l0.1-0.1l52.1,3.1c3.7,0.2,8.4-0.9,13-3l44.6-20.6c7.6-3.5,15.2-4.1,18.6-1.3c1.5,1.2,2.1,3,1.6,5.1
			c-2.6,12.4-13.8,26.8-30.7,39.4C97.1,110.6,65.3,121.8,41.4,121.8z"/>
		
			<linearGradient id="Fill-12_1_" gradientUnits="userSpaceOnUse" x1="-122.3172" y1="1.3173" x2="-123.9253" y2="1.4805" gradientTransform="matrix(148.4673 0 0 72.7203 18347.9473 -13.9911)">
			<stop  offset="2.210531e-02" style="stop-color:#FF464C"/>
			<stop  offset="1" style="stop-color:#C10407"/>
		</linearGradient>
		<path id="Fill-12" class="st11" d="M23.5,64.8C11.5,77,5.6,89.4,6.9,99.9c0.8,6.6,4.6,12.1,10.8,15.9c21.5,13.1,67.3,4.8,102-18.5
			c17.8-12,30.1-26.3,33.8-39.3c0.6-2.1,0.2-3.9-1.3-5.1c-3.2-2.8-10.3-2.8-17.7,0.1L88.3,71c-4.8,1.9-9.8,2.6-13.5,2L23.5,64.8z
			 M44.9,122.7c-10.9,0-20.5-2-27.5-6.3c-6.5-4-10.3-9.6-11.2-16.4c-1.3-10.7,4.7-23.4,16.9-35.8l0.1-0.1l51.7,8.3
			c3.7,0.6,8.5-0.1,13.2-2l46.2-18.1c7.7-3,15.1-3,18.4,0c1.6,1.5,2.1,3.5,1.5,5.9c-3.7,13.2-16.1,27.7-34.1,39.7
			C96.5,113.8,67.7,122.7,44.9,122.7z"/>
		
			<linearGradient id="Fill-13_1_" gradientUnits="userSpaceOnUse" x1="-122.3277" y1="1.3439" x2="-123.9358" y2="1.5071" gradientTransform="matrix(151.5984 0 0 69.7266 18735.2051 -9.993)">
			<stop  offset="2.210531e-02" style="stop-color:#FF464C"/>
			<stop  offset="1" style="stop-color:#C10407"/>
		</linearGradient>
		<path id="Fill-13" class="st12" d="M25.3,58.6c-13,12.1-20,25-19.6,36.5c0.3,7.2,3.5,13.5,9.4,18.2
			c20.3,16.3,66.6,11.6,103.2-10.4c18.8-11.3,32.3-25.7,37.1-39.4c0.8-2.4,0.5-4.5-1.1-6c-3-3.1-10-3.6-17.4-1.3L89.4,71.4
			c-5,1.6-10,1.9-13.7,0.9L25.3,58.6z M49.9,123.7c-14.4,0-27-3.2-35.2-9.8C8.6,109,5.3,102.6,5,95.2C4.6,83.5,11.7,70.3,25,58
			l0.1-0.1l50.8,13.8c3.6,1,8.4,0.6,13.3-0.9l47.7-15.3c7.7-2.5,14.8-1.9,18.1,1.4c1.7,1.8,2.2,4.1,1.2,6.8
			c-4.9,13.9-18.5,28.4-37.4,39.8C96.8,116.7,71.3,123.7,49.9,123.7z"/>
		
			<linearGradient id="Fill-14_1_" gradientUnits="userSpaceOnUse" x1="-122.3373" y1="1.2696" x2="-123.9454" y2="1.4328" gradientTransform="matrix(154.0365 0 0 73.7771 19035.2988 -12.3821)">
			<stop  offset="2.210531e-02" style="stop-color:#FF464C"/>
			<stop  offset="1" style="stop-color:#C10407"/>
		</linearGradient>
		<path id="Fill-14" class="st13" d="M26.2,52.4c-14,11.8-22,25.1-22.7,37.4c-0.4,7.8,2.3,15,7.8,20.7C30.1,130,76.6,129.3,115,109
			c19.7-10.4,34.4-24.7,40.4-39.1c1.1-2.7,0.8-5.1-0.8-7c-3-3.4-9.6-4.5-16.9-2.7l-48.8,12l-0.1-0.3l0.1,0.3
			c-5.1,1.3-10.1,1.1-13.7-0.3L26.2,52.4z M54.3,125.4c-18.3,0-34.2-4.8-43.5-14.3c-5.7-5.8-8.4-13.2-8-21.2
			c0.7-12.6,8.9-26.1,23.1-38.1l0.2-0.1l49.4,19.7c3.5,1.4,8.3,1.5,13.3,0.3l48.8-12c7.6-1.9,14.5-0.7,17.6,2.9
			c1.8,2.1,2.1,4.8,0.9,7.7c-6.1,14.6-20.9,28.9-40.7,39.4C95.5,120.1,73.5,125.4,54.3,125.4z"/>
		
			<linearGradient id="Fill-16_1_" gradientUnits="userSpaceOnUse" x1="-122.342" y1="1.1771" x2="-123.9501" y2="1.3403" gradientTransform="matrix(155.8024 0 0 82.9259 19253.2363 -19.1671)">
			<stop  offset="2.210531e-02" style="stop-color:#FF464C"/>
			<stop  offset="1" style="stop-color:#C10407"/>
		</linearGradient>
		<path id="Fill-16" class="st14" d="M28.7,45.7C3.6,64.9-4.5,89.6,8.7,107.3c8.2,11,23.5,17.8,43.1,19.4
			c19.7,1.5,41.1-2.5,60.4-11.3c20.5-9.4,36.5-23.5,43.7-38.5c1.4-3,1.3-5.8-0.5-8.1c-2.8-3.7-9.2-5.3-16.3-4.1L89.4,73l-0.1-0.3
			l0.1,0.3c-5.2,0.9-10.2,0.3-13.7-1.6L28.7,45.7z M59.9,127.8c-22.4,0-41.9-6.9-51.8-20.1C-5.3,89.6,2.8,64.4,28.4,45l0.2-0.1
			l47.5,26c3.3,1.8,8.2,2.4,13.2,1.5L139,64c7.5-1.3,14,0.4,17,4.4c1.9,2.5,2.1,5.6,0.6,8.8c-7.3,15.2-23.4,29.4-44,38.9
			C95.2,123.9,76.8,127.8,59.9,127.8z"/>
		
			<linearGradient id="Fill-17_1_" gradientUnits="userSpaceOnUse" x1="-122.3442" y1="1.0956" x2="-123.9523" y2="1.2588" gradientTransform="matrix(156.7394 0 0 93.1419 19368.6875 -26.2677)">
			<stop  offset="2.210531e-02" style="stop-color:#FF464C"/>
			<stop  offset="1" style="stop-color:#C10407"/>
		</linearGradient>
		<path id="Fill-17" class="st15" d="M31.7,38.6C5,57-5.1,83.1,6.5,103.5c7.2,12.6,21.8,21.5,41.2,25s41.1,1.2,61.1-6.6
			c21.3-8.3,38.4-22,46.9-37.6c1.8-3.3,1.8-6.6,0-9.3c-2.7-4-8.6-6.1-15.6-5.5l-50.2,4.4c-5.3,0.5-10.2-0.6-13.5-3L31.7,38.6z
			 M65.6,130.9c-26.6,0-49.9-9.6-59.8-27C-6,83,4.4,56.5,31.6,37.9l0.2-0.1l45,32.6c3.2,2.3,7.9,3.3,13,2.9v0.4v-0.4l50.2-4.4
			c7.2-0.6,13.5,1.6,16.3,5.8c2,3,2,6.5,0.1,10c-8.6,15.8-25.8,29.6-47.3,37.9C94.6,128.2,79.6,130.9,65.6,130.9z"/>
		
			<linearGradient id="Fill-18_1_" gradientUnits="userSpaceOnUse" x1="-122.3444" y1="1.0238" x2="-123.9525" y2="1.1869" gradientTransform="matrix(156.8652 0 0 104.4104 19383.793 -33.6499)">
			<stop  offset="2.210531e-02" style="stop-color:#FF464C"/>
			<stop  offset="1" style="stop-color:#C10407"/>
		</linearGradient>
		<path id="Fill-18" class="st16" d="M35.4,31.2C7.2,48.7-5.3,76,4.5,99.2c6,14.4,19.8,25.4,38.9,31c19,5.6,40.9,5.1,61.4-1.4
			c21.9-7,40.2-20.2,50.1-36.3c2.2-3.6,2.4-7.3,0.5-10.6c-2.4-4.3-8.1-7-14.8-7l0,0L90.2,75l0,0c-5.3,0-10.1-1.7-13.1-4.6L35.4,31.2
			z M71.1,134.7c-9.6,0-19.1-1.3-27.9-3.9C23.9,125.1,10,114,3.9,99.4c-9.9-23.6,2.7-51.3,31.4-69l0.2-0.1l42,39.5
			c2.9,2.8,7.6,4.3,12.7,4.4v0.4v-0.4l50.4-0.1l0,0c6.9,0,12.8,2.8,15.4,7.3c2,3.5,1.8,7.5-0.5,11.3c-10,16.3-28.4,29.6-50.4,36.6
			C93.9,133,82.3,134.7,71.1,134.7z"/>
		
			<linearGradient id="Fill-20_1_" gradientUnits="userSpaceOnUse" x1="-122.3419" y1="0.9612" x2="-123.95" y2="1.1243" gradientTransform="matrix(156.1345 0 0 117.1878 19293.6777 -40.9982)">
			<stop  offset="2.210531e-02" style="stop-color:#FF464C"/>
			<stop  offset="1" style="stop-color:#C10407"/>
		</linearGradient>
		<path id="Fill-20" class="st17" d="M40.5,23.9C10.8,40.2-4,68.7,3.7,94.9c4.8,16.2,17.5,29.4,36,37.3s40.2,9.4,61.3,4.3
			c22.5-5.5,41.8-18.2,53.1-34.8c2.6-3.9,3.1-8.1,1.2-12c-2.2-4.7-7.4-7.9-13.9-8.5l-50.2-4.7c-5.3-0.5-9.9-2.7-12.7-6.2L40.5,23.9z
			 M76.3,140.2c-12.9,0-25.5-2.5-36.9-7.3c-18.6-8-31.6-21.4-36.4-37.8c-7.8-26.6,7.2-55.5,37.3-71.9l0.3-0.1L79,69.9
			c2.7,3.3,7.2,5.5,12.3,5.9l50.2,4.7c6.7,0.6,12.1,3.9,14.5,8.9c1.9,4,1.5,8.7-1.3,12.7c-11.4,16.7-30.8,29.5-53.5,35.1
			C92.9,139.2,84.6,140.2,76.3,140.2z"/>
		
			<linearGradient id="Fill-21_1_" gradientUnits="userSpaceOnUse" x1="-122.3373" y1="0.9078" x2="-123.9454" y2="1.0709" gradientTransform="matrix(154.5874 0 0 130.6182 19101.8379 -48.9895)">
			<stop  offset="2.210531e-02" style="stop-color:#FF464C"/>
			<stop  offset="1" style="stop-color:#C10407"/>
		</linearGradient>
		<path id="Fill-21" class="st18" d="M45.5,15.9C14.5,30.8-2.7,60.2,2.7,89.3c3.3,18,14.9,33.6,32.6,43.9s39.3,14,60.7,10.4
			c22.9-3.8,43.2-15.7,55.9-32.7c3.1-4.1,3.8-9,2.1-13.4c-2-5.1-6.8-8.8-12.9-10l-49.6-9.8c-5.2-1-9.6-3.9-12.1-7.9L45.5,15.9z
			 M79.9,145.6c-16.1,0-31.6-4-45-11.8C17.1,123.4,5.4,107.6,2,89.4C-3.5,60,14,30.1,45.5,15.1l0.3-0.1l34.1,54.4
			c2.4,3.8,6.7,6.6,11.7,7.6l49.6,9.8c6.4,1.3,11.4,5.2,13.5,10.4c1.8,4.7,1,9.8-2.2,14.1c-12.8,17-33.3,29-56.4,32.9
			C90.7,145.2,85.3,145.6,79.9,145.6z"/>
		
			<linearGradient id="Fill-22_1_" gradientUnits="userSpaceOnUse" x1="-122.3301" y1="0.8625" x2="-123.9382" y2="1.0257" gradientTransform="matrix(152.2156 0 0 144.9926 18807.7344 -57.9975)">
			<stop  offset="2.210531e-02" style="stop-color:#FF464C"/>
			<stop  offset="1" style="stop-color:#C10407"/>
		</linearGradient>
		<path id="Fill-22" class="st19" d="M51,6.9C18.9,20.1-0.8,50.4,2,82.4c1.7,19.8,11.9,37.8,28.6,50.6s37.9,18.9,59.5,17
			c23.1-2,44.4-13,58.5-30.1c3.5-4.3,4.7-9.7,3.1-14.9c-1.6-5.4-6.1-9.8-11.9-11.6L91.4,78.1c-5.1-1.6-9.3-5.1-11.4-9.7L51,6.9z
			 M82.4,151c-19.1,0-37.3-6.1-52.2-17.5c-16.9-12.9-27.2-31-28.9-51C-1.6,50,18.4,19.4,51.1,6.1L51.4,6l0.1,0.3l29.1,61.8
			c2.1,4.4,6.1,7.8,11,9.3l48.6,15.3c6,1.9,10.6,6.4,12.3,12.1c1.6,5.4,0.4,11-3.3,15.5c-14.2,17.3-35.7,28.3-59,30.3
			C87.6,150.9,85,151,82.4,151z"/>
	</g>
</g>
</svg>
